PathFileType	4	(X/Y/Z)	/Users/itak/Documents/Research/Walk-IL/dataset/trc/00134_00007.trc
DataRate	CameraRate	NumFrames	NumMarkers	Units	OrigDataRate	OrigDataStartFrame	OrigNumFrames
100.000000	100.000000	4	53	mm	100.000000	92	742
Frame#	Time	RPSI			LPSI			L3			STRN			T10			C7			CLAV			RBAK			LBAK			LSHO			LUPA			LAEL			LAOL			LWTS			LWPS			LFRA			LIFD			LHPS			LHTS			RSHO			RUPA			RAEL			RAOL			RWTS			RWPS			RFRA			RIFD			RHTS			RHPS			RBHD			LFHD			RFHD			LBHD			LHIP			RHIP			RASI			LASI			LKNE			LTHI			LANK			LTIP			LTOE			LMT1			LMT5			LHEE			RKNE			RTHI			RANK			RTIP			RTOE			RMT1			RMT5			RHEE			
		X1	Y1	Z1	X2	Y2	Z2	X3	Y3	Z3	X4	Y4	Z4	X5	Y5	Z5	X6	Y6	Z6	X7	Y7	Z7	X8	Y8	Z8	X9	Y9	Z9	X10	Y10	Z10	X11	Y11	Z11	X12	Y12	Z12	X13	Y13	Z13	X14	Y14	Z14	X15	Y15	Z15	X16	Y16	Z16	X17	Y17	Z17	X18	Y18	Z18	X19	Y19	Z19	X20	Y20	Z20	X21	Y21	Z21	X22	Y22	Z22	X23	Y23	Z23	X24	Y24	Z24	X25	Y25	Z25	X26	Y26	Z26	X27	Y27	Z27	X28	Y28	Z28	X29	Y29	Z29	X30	Y30	Z30	X31	Y31	Z31	X32	Y32	Z32	X33	Y33	Z33	X34	Y34	Z34	X35	Y35	Z35	X36	Y36	Z36	X37	Y37	Z37	X38	Y38	Z38	X39	Y39	Z39	X40	Y40	Z40	X41	Y41	Z41	X42	Y42	Z42	X43	Y43	Z43	X44	Y44	Z44	X45	Y45	Z45	X46	Y46	Z46	X47	Y47	Z47	X48	Y48	Z48	X49	Y49	Z49	X50	Y50	Z50	X51	Y51	Z51	X52	Y52	Z52	X53	Y53	Z53	

93	0.92	168.9661254882812	1111.443115234375	1162.105224609375	167.6533660888672	1121.417846679688	1296.279296875	173.07666015625	1152.632568359375	1234.166870117188	-57.34790802001953	1336.755249023438	1236.9453125	199.3737335205078	1307.862915039062	1240.00634765625	139.6930999755859	1594.400146484375	1257.257690429688	-32.56215286254883	1474.314575195312	1239.7685546875	211.7048950195312	1413.9072265625	1174.48974609375	141.6130981445312	1574.836059570312	1359.199951171875	52.66473007202148	1555.521240234375	1424.091430664062	78.99509429931641	1424.556030273438	1494.582275390625	79.66187286376953	1203.594482421875	1511.55419921875	150.2942199707031	1197.667236328125	1460.136474609375	4.53194522857666	940.161376953125	1453.859008789062	84.48696136474609	919.5020751953125	1486.361694335938	71.49180603027344	1085.893798828125	1511.498657226562	13.84704208374023	747.7396240234375	1420.445678710938	62.66976928710938	842.3258056640625	1482.423217773438	-3.927018404006958	849.543701171875	1460.65673828125	97.74449920654297	1568.134643554688	1072.403564453125	127.487060546875	1496.761352539062	1011.704040527344	176.1568603515625	1206.677490234375	997.9189453125	170.6303863525391	1206.577270507812	1094.237182617188	59.64895629882812	949.3196411132812	994.1686401367188	139.9554595947266	940.9401245117188	974.3021240234375	163.3435974121094	1131.430541992188	980.3716430664062	55.41423416137695	753.89306640625	1014.341003417969	43.55227661132812	837.5899658203125	986.5015258789062	115.1379241943359	837.67138671875	967.091064453125	108.7539520263672	1758.511596679688	1189.531860351562	-95.58329010009766	1820.950317382812	1242.900634765625	-46.16213607788086	1816.018798828125	1122.460571289062	62.86195755004883	1765.93603515625	1315.766357421875	89.71935272216797	1027.6240234375	1408.533203125	32.45136260986328	1014.389526367188	1051.71826171875	-43.11097717285156	1083.099853515625	1108.359985351562	-27.62319374084473	1081.380493164062	1376.314331054688	130.2607727050781	528.5521850585938	1365.399780273438	133.9568023681641	675.4900512695312	1395.232421875	294.2442626953125	41.87052917480469	1324.114501953125	260.0666809082031	294.3477783203125	1373.189575195312	63.59565353393555	43.01956939697266	1261.758422851562	144.767333984375	47.47144317626953	1231.03271484375	167.6790466308594	38.9058952331543	1348.577270507812	364.0121154785156	45.67143249511719	1262.575073242188	-173.4553680419922	579.4345703125	1080.305908203125	-56.32204055786133	834.7199096679688	1059.559692382812	-122.5061645507812	52.85591125488281	1129.085327148438	-162.6510620117188	436.4792175292969	1076.5615234375	-349.6586303710938	86.89311218261719	1123.9111328125	-306.7538757324219	66.02217864990234	1177.653930664062	-243.2479095458984	65.71539306640625	1077.404418945312	-78.07850646972656	54.8648681640625	1188.815063476562	
94	0.93	164.6119384765625	1110.43701171875	1161.48046875	163.1694030761719	1120.613159179688	1295.610107421875	168.6092987060547	1151.719360351562	1233.506591796875	-62.14007949829102	1335.445678710938	1236.01416015625	194.6265106201172	1307.042724609375	1239.263549804688	134.3475646972656	1593.458618164062	1256.369140625	-37.55131530761719	1473.042358398438	1238.765502929688	206.8377227783203	1413.045532226562	1173.764526367188	136.177978515625	1573.9423828125	1358.341064453125	47.16398620605469	1554.507446289062	1423.120361328125	73.54327392578125	1423.568115234375	1493.68017578125	74.47401428222656	1202.526489257812	1510.694946289062	145.2564697265625	1196.818725585938	1459.477172851562	0.1427973955869675	939.2155151367188	1453.166381835938	80.15538787841797	918.54052734375	1485.701416015625	66.76567077636719	1084.907104492188	1510.661987304688	10.06607246398926	746.5247192382812	1419.725341796875	58.61899948120117	841.2959594726562	1481.771484375	-8.01003360748291	848.3339233398438	1459.936157226562	92.65920257568359	1567.004028320312	1071.442016601562	122.6348419189453	1495.655395507812	1010.846801757812	172.0521697998047	1205.670288085938	997.487548828125	166.3883209228516	1205.697387695312	1093.80615234375	56.06028747558594	948.1090087890625	993.908447265625	136.4106140136719	939.8052368164062	974.1942749023438	159.4487457275391	1130.363037109375	980.0341796875	52.1519660949707	752.6561889648438	1014.43212890625	40.17124176025391	836.28271484375	986.4384155273438	111.8067245483398	836.4945678710938	967.1063842773438	103.5309677124023	1757.249267578125	1188.373901367188	-100.7735443115234	1819.872680664062	1241.121337890625	-51.2103157043457	1814.456665039062	1120.684204101562	57.27848434448242	1765.053833007812	1314.447387695312	85.38407897949219	1026.82373046875	1407.903686523438	28.43300247192383	1013.047485351562	1051.206298828125	-47.47856521606445	1081.753295898438	1107.7177734375	-32.08373641967773	1080.223510742188	1375.655883789062	127.9728927612305	527.9841918945312	1365.147583007812	131.1081848144531	674.9937133789062	1394.796630859375	294.2724914550781	41.9939079284668	1324.006713867188	259.0098876953125	294.3346557617188	1373.006469726562	63.55393600463867	42.99411392211914	1261.909545898438	144.7376403808594	47.5253791809082	1231.123657226562	167.5671844482422	38.62149047851562	1348.52392578125	364.0250854492188	45.82783889770508	1262.39501953125	-176.4638366699219	578.2286376953125	1077.983032226562	-59.76674270629883	833.4823608398438	1057.708984375	-143.0862426757812	50.84185409545898	1129.86767578125	-169.4971008300781	435.3166198730469	1074.908935546875	-369.2773132324219	89.89617919921875	1121.010986328125	-327.6355895996094	68.47743988037109	1175.473022460938	-262.7671508789062	66.27964782714844	1076.15673828125	-99.62889862060547	52.19589233398438	1190.354248046875	
95	0.9400000000000001	160.1166687011719	1109.339477539062	1160.802978515625	158.5202178955078	1119.734619140625	1294.886352539062	164.0070037841797	1150.7294921875	1232.786865234375	-67.05784606933594	1334.080688476562	1235.001098632812	189.7496032714844	1306.145141601562	1238.455200195312	128.9052886962891	1592.447143554688	1255.388427734375	-42.64800643920898	1471.707885742188	1237.6669921875	201.8677520751953	1412.116333007812	1172.95458984375	130.634033203125	1572.981811523438	1357.391357421875	41.55136871337891	1553.4326171875	1422.064453125	67.9808349609375	1422.547119140625	1492.706665039062	69.14012145996094	1201.433837890625	1509.786254882812	140.0661926269531	1195.903198242188	1458.749145507812	-4.427871704101562	938.1599731445312	1452.430541992188	75.65189361572266	917.5248413085938	1484.991577148438	61.84757995605469	1083.87890625	1509.7919921875	6.11716365814209	745.2529296875	1418.982299804688	54.40385437011719	840.2118530273438	1481.079345703125	-12.26481628417969	847.0410766601562	1459.179321289062	87.45626068115234	1565.797729492188	1070.388549804688	117.6542510986328	1494.4638671875	1009.902893066406	167.7906951904297	1204.573486328125	996.9817504882812	162.0138549804688	1204.73193359375	1093.29931640625	52.28437042236328	946.8187866210938	993.6155395507812	132.6658630371094	938.585693359375	974.0371704101562	155.3981018066406	1129.202880859375	979.6300659179688	48.66427612304688	751.354736328125	1014.503723144531	36.56314086914062	834.9091796875	986.3441162109375	108.2591705322266	835.2374267578125	967.0853881835938	98.18579864501953	1755.93408203125	1187.142822265625	-106.0934600830078	1818.657592773438	1239.34033203125	-56.38961029052734	1812.848754882812	1118.846801757812	51.57468032836914	1764.088134765625	1313.051879882812	80.84103393554688	1025.975830078125	1407.215698242188	24.30519676208496	1011.590698242188	1050.6142578125	-51.96520233154297	1080.321899414062	1106.990844726562	-36.72385025024414	1079.021484375	1374.916748046875	125.5305938720703	527.3876342773438	1364.838989257812	128.0619506835938	674.4710083007812	1394.302612304688	294.3034057617188	42.14329147338867	1323.882202148438	257.9022827148438	294.3220520019531	1372.800170898438	63.51128768920898	42.984375	1262.04931640625	144.7026672363281	47.57975769042969	1231.199340820312	167.4745941162109	38.39665603637695	1348.486450195312	364.0129699707031	46.00553131103516	1262.177734375	-179.3986053466797	576.8059692382812	1075.797119140625	-63.23029708862305	832.0123291015625	1055.81201171875	-163.5718841552734	49.20282745361328	1130.157470703125	-176.2488861083984	434.1165771484375	1073.272827148438	-388.572998046875	93.51229858398438	1117.75341796875	-348.1875915527344	71.60678100585938	1172.900512695312	-282.0989379882812	67.29891204833984	1074.516235351562	-121.0440673828125	49.89570999145508	1191.358642578125	
96	0.9500000000000001	155.4840087890625	1108.14794921875	1160.080444335938	153.6971130371094	1118.781860351562	1294.114135742188	159.2720336914062	1149.665405273438	1232.014282226562	-72.09391021728516	1332.6630859375	1233.888549804688	184.7392578125	1305.17138671875	1237.588623046875	123.3694076538086	1591.367065429688	1254.317138671875	-47.8620719909668	1470.319458007812	1236.466552734375	196.794677734375	1411.12158203125	1172.065063476562	124.9815139770508	1571.95654296875	1356.3505859375	35.82676696777344	1552.298095703125	1420.9228515625	62.30706024169922	1421.487426757812	1491.657348632812	63.67426681518555	1200.318603515625	1508.825927734375	134.736083984375	1194.925170898438	1457.949829101562	-9.184477806091309	936.9937744140625	1451.646118164062	70.97332000732422	916.4595336914062	1484.224487304688	56.73923492431641	1082.806884765625	1508.884643554688	1.976200699806213	743.9327392578125	1418.231811523438	50.00707626342773	839.0797119140625	1480.341064453125	-16.70239639282227	845.6873168945312	1458.386474609375	82.15095520019531	1564.519287109375	1069.24609375	112.5578689575195	1493.189086914062	1008.873229980469	163.3667144775391	1203.385375976562	996.4002685546875	157.5009765625	1203.677612304688	1092.71484375	48.31913375854492	945.444580078125	993.2868041992188	128.7212829589844	937.2818603515625	973.8243408203125	151.18017578125	1127.948364257812	979.1560668945312	44.96881484985352	749.986083984375	1014.546264648438	32.74084854125977	833.4650268554688	986.214111328125	104.4994888305664	833.8969116210938	967.0206909179688	92.71717834472656	1754.572875976562	1185.833862304688	-111.5533599853516	1817.303833007812	1237.546997070312	-61.698974609375	1811.199584960938	1116.945678710938	45.75093460083008	1763.043701171875	1311.5771484375	76.06064605712891	1025.081665039062	1406.46923828125	20.07061958312988	1010.030578613281	1049.930053710938	-56.56047058105469	1078.803466796875	1106.153686523438	-41.56767654418945	1077.782348632812	1374.075805664062	122.9198303222656	526.7744750976562	1364.467407226562	124.7904205322266	673.9238891601562	1393.746704101562	294.3336791992188	42.32268905639648	1323.743774414062	256.7403259277344	294.3114624023438	1372.567016601562	63.46493530273438	42.97675704956055	1262.167114257812	144.6606750488281	47.62874221801758	1231.258666992188	167.4048309326172	38.24365615844727	1348.468139648438	363.9721069335938	46.21987152099609	1261.928833007812	-182.3321990966797	575.20947265625	1073.76904296875	-66.70091247558594	830.3245239257812	1053.883911132812	-183.8454742431641	47.95312118530273	1129.944213867188	-182.9575042724609	432.9150695800781	1071.672607421875	-407.42041015625	97.72643280029297	1114.144653320312	-368.3114013671875	75.34548950195312	1169.918334960938	-301.1248168945312	68.78758239746094	1072.484375	-142.2078552246094	47.96885299682617	1191.804443359375	
